<svg width="22" height="22" viewBox="0 0 22 22" fill="none" xmlns="http://www.w3.org/2000/svg">
<path d="M21.25 9.9V3.1C21.25 1.6 20.61 1 19.02 1H14.98C13.39 1 12.75 1.6 12.75 3.1V9.9C12.75 11.4 13.39 12 14.98 12H19.02C20.61 12 21.25 11.4 21.25 9.9Z" stroke="#1C1C1C" stroke-width="1.5" stroke-linecap="round" stroke-linejoin="round"/>
<path d="M21.25 18.9V17.1C21.25 15.6 20.61 15 19.02 15H14.98C13.39 15 12.75 15.6 12.75 17.1V18.9C12.75 20.4 13.39 21 14.98 21H19.02C20.61 21 21.25 20.4 21.25 18.9Z" stroke="#1C1C1C" stroke-width="1.5" stroke-linecap="round" stroke-linejoin="round"/>
<path d="M9.75 12.1V18.9C9.75 20.4 9.11 21 7.52 21H3.48C1.89 21 1.25 20.4 1.25 18.9V12.1C1.25 10.6 1.89 10 3.48 10H7.52C9.11 10 9.75 10.6 9.75 12.1Z" stroke="#1C1C1C" stroke-width="1.5" stroke-linecap="round" stroke-linejoin="round"/>
<path d="M9.75 3.1V4.9C9.75 6.4 9.11 7 7.52 7H3.48C1.89 7 1.25 6.4 1.25 4.9V3.1C1.25 1.6 1.89 1 3.48 1H7.52C9.11 1 9.75 1.6 9.75 3.1Z" stroke="#1C1C1C" stroke-width="1.5" stroke-linecap="round" stroke-linejoin="round"/>
</svg>
